<svg id="instagram-logo-svgrepo-com" xmlns="http://www.w3.org/2000/svg" width="21.836" height="21.836" viewBox="0 0 21.836 21.836">
  <path id="Caminho_1" data-name="Caminho 1" d="M15.81,0H6.026A6.033,6.033,0,0,0,0,6.026V15.81a6.033,6.033,0,0,0,6.026,6.026H15.81a6.033,6.033,0,0,0,6.026-6.026V6.026A6.033,6.033,0,0,0,15.81,0ZM19.9,15.81A4.093,4.093,0,0,1,15.81,19.9H6.026A4.093,4.093,0,0,1,1.937,15.81V6.026A4.093,4.093,0,0,1,6.026,1.937H15.81A4.093,4.093,0,0,1,19.9,6.026V15.81Z"/>
  <path id="Caminho_2" data-name="Caminho 2" d="M46.595,40.97A5.627,5.627,0,1,0,52.221,46.6,5.633,5.633,0,0,0,46.595,40.97Zm0,9.316A3.689,3.689,0,1,1,50.284,46.6,3.693,3.693,0,0,1,46.595,50.286Z" transform="translate(-35.677 -35.678)"/>
  <path id="Caminho_3" data-name="Caminho 3" d="M120.342,28.251a1.42,1.42,0,1,0,1,.416A1.426,1.426,0,0,0,120.342,28.251Z" transform="translate(-103.561 -24.602)"/>
</svg>
