<svg xmlns="http://www.w3.org/2000/svg" width="16" height="16" viewBox="0 0 16 16">
  <path id="instagram" d="M8.131,0c-2.175,0-2.446.011-3.3.047A5.94,5.94,0,0,0,2.892.419a3.924,3.924,0,0,0-1.417.925A3.879,3.879,0,0,0,.55,2.76,5.94,5.94,0,0,0,.178,4.7C.139,5.555.131,5.825.131,8s.011,2.446.047,3.3A5.955,5.955,0,0,0,.55,13.24a3.923,3.923,0,0,0,.925,1.417,3.878,3.878,0,0,0,1.417.925,6.018,6.018,0,0,0,1.943.373c.852.038,1.122.047,3.3.047s2.446-.01,3.3-.047a6.032,6.032,0,0,0,1.943-.373,3.923,3.923,0,0,0,1.417-.925,3.858,3.858,0,0,0,.925-1.417,6.022,6.022,0,0,0,.373-1.943c.038-.852.046-1.122.046-3.3s-.01-2.446-.046-3.3a6.018,6.018,0,0,0-.373-1.943,3.924,3.924,0,0,0-.925-1.417A3.858,3.858,0,0,0,13.371.419,5.954,5.954,0,0,0,11.428.047C10.577.008,10.306,0,8.131,0Zm0,1.44c2.136,0,2.391.011,3.235.047a4.427,4.427,0,0,1,1.484.277,2.5,2.5,0,0,1,.922.6,2.466,2.466,0,0,1,.6.92,4.427,4.427,0,0,1,.277,1.484c.036.844.047,1.1.047,3.235s-.01,2.391-.049,3.235a4.551,4.551,0,0,1-.282,1.484,2.6,2.6,0,0,1-.6.922,2.526,2.526,0,0,1-.922.6,4.431,4.431,0,0,1-1.49.277c-.849.036-1.1.046-3.24.046s-2.391-.01-3.24-.049a4.6,4.6,0,0,1-1.49-.281,2.51,2.51,0,0,1-.92-.6,2.4,2.4,0,0,1-.6-.922,4.473,4.473,0,0,1-.282-1.49c-.028-.839-.042-1.1-.042-3.23s.014-2.391.042-3.24a4.479,4.479,0,0,1,.282-1.49,2.35,2.35,0,0,1,.6-.922,2.386,2.386,0,0,1,.92-.6,4.458,4.458,0,0,1,1.482-.279c.849-.031,1.1-.042,3.237-.042Zm0,2.454A4.106,4.106,0,1,0,9.7,4.206,4.106,4.106,0,0,0,8.131,3.894Zm0,6.774A2.667,2.667,0,1,1,10.8,8,2.665,2.665,0,0,1,8.131,10.668ZM13.364,3.73a.961.961,0,1,1-.962-.959A.962.962,0,0,1,13.364,3.73Z" transform="translate(-0.131)" fill="#fff"/>
</svg>
